# xmcd CD database file
#
# Track frame offsets:
#	150
#	23115
#	44164
#	58142
#	79277
#	98454
#	121597
#	167680
#	181930
#	195707
#
# Disc length: 2845 seconds
#
# Revision: 0
# Processed by: cddbd v1.4PL0 Copyright (c) Steve Scherf et al.
# Submitted via: CDex 1.50
#
DISCID=7d0b1b0a
DTITLE=Coleman Hawkins - Talk of the Town
DYEAR=1900
DGENRE=Jazz
TTITLE0=The Man I Love
TTITLE1=Don't Blame Me
TTITLE2=Wrap Your Troubles in Dreams (And Dream Your Troubles Away)
TTITLE3=Until the Real Thing Comes Along
TTITLE4=Red Beans
TTITLE5=Through for the Night
TTITLE6=Hawk Eyes
TTITLE7=I Only Have Eyes for You
TTITLE8=It's the Talk of the Town
TTITLE9=The Midnight Sun Will Never Set
EXTD=
EXTT0=
EXTT1=
EXTT2=
EXTT3=
EXTT4=
EXTT5=
EXTT6=
EXTT7=
EXTT8=
EXTT9=
PLAYORDER=
